<?xml version="1.0" encoding="UTF-8"?>
<!DOCTYPE svg PUBLIC "-//W3C//DTD SVG 1.1//EN" "http://www.w3.org/Graphics/SVG/1.1/DTD/svg11.dtd">
<svg version="1.2" width="80mm" height="160mm" viewBox="0 0 8000 16000" preserveAspectRatio="xMidYMid" fill-rule="evenodd"
  xmlns="http://www.w3.org/2000/svg"
  xmlns:ooo="http://xml.openoffice.org/svg/export"
  xmlns:xlink="http://www.w3.org/1999/xlink"
  xmlns:presentation="http://sun.com/xmlns/staroffice/presentation"
  xmlns:smil="http://www.w3.org/2001/SMIL20/"
  xmlns:anim="urn:oasis:names:tc:opendocument:xmlns:animation:1.0" xml:space="preserve">

  <style>
    :root {
      --wood-dark: rgb(158,69,57);
      --wood-light: rgb(205,104,61);

      --steel-dark: rgb(155,171,178);
      --steel-light: rgb(199,220,208);

      --gold-dark: rgb(247,150,23);
      --gold-light: rgb(251,185,84);

      --obsidian-dark: rgb(105,79,98);
      --obsidian-light: rgb(127,112,138);

      --diamond-dark: rgb(77,155,230);
      --diamond-light: rgb(143,211,255);
    }

    path.line {
      stroke: rgb(0,0,0);
      stroke-width: 35;
      stroke-linecap: round;
      stroke-linejoin: round;
    }

    g.part:not(.active) {
      display: none;
    }

    stop.wood-light { stop-color: var(--wood-light); }
    stop.wood-dark { stop-color: var(--wood-dark); }

    stop.steel-light { stop-color: var(--steel-light); }
    stop.steel-dark { stop-color: var(--steel-dark); }

    stop.gold-light { stop-color: var(--gold-light); }
    stop.gold-dark { stop-color: var(--gold-dark); }
    
    stop.obsidian-light { stop-color: var(--obsidian-light); }
    stop.obsidian-dark { stop-color: var(--obsidian-dark); }

    stop.diamond-light { stop-color: var(--diamond-light); }
    stop.diamond-dark { stop-color: var(--diamond-dark); }
  </style>

  <defs>
    <linearGradient id="grad-template">
      <stop class="wood-light" offset="0"/>
      <stop class="wood-dark" offset="1"/>
    </linearGradient>
    <linearGradient id="grad-template-0" xlink:href="#grad-template" gradientTransform="rotate(0 0.5 0.5)"/>
    <linearGradient id="grad-template-45" xlink:href="#grad-template" gradientTransform="rotate(45 0.5 0.5)"/>
    <linearGradient id="grad-template-90" xlink:href="#grad-template" gradientTransform="rotate(90 0.5 0.5)"/>
    <linearGradient id="grad-template-135" xlink:href="#grad-template" gradientTransform="rotate(135 0.5 0.5)"/>
    <linearGradient id="grad-template-180" xlink:href="#grad-template" gradientTransform="rotate(180 0.5 0.5)"/>
    <linearGradient id="grad-template-225" xlink:href="#grad-template" gradientTransform="rotate(225 0.5 0.5)"/>
    <linearGradient id="grad-template-270" xlink:href="#grad-template" gradientTransform="rotate(270 0.5 0.5)"/>
    <linearGradient id="grad-template-315" xlink:href="#grad-template" gradientTransform="rotate(315 0.5 0.5)"/>
    <linearGradient id="grad-template-360" xlink:href="#grad-template" gradientTransform="rotate(360 0.5 0.5)"/>
  </defs>

  <!-- <rect fill="url(#grad-template-0)" x="3000" y="6000" width="1000" height="1000" rx="150"/>
  <rect fill="url(#grad-template-45)" x="5000" y="6000" width="1000" height="1000" rx="150"/> -->

  <!-- BLADE -->
  <g>
    <defs>
      <linearGradient id="grad-blade">
        <stop class="diamond-light" offset="0"/>
        <stop class="diamond-dark" offset="1"/>
      </linearGradient>
      <linearGradient id="grad-blade-0" xlink:href="#grad-blade" gradientTransform="rotate(0 0.5 0.5)"/>
      <linearGradient id="grad-blade-45" xlink:href="#grad-blade" gradientTransform="rotate(45 0.5 0.5)"/>
      <linearGradient id="grad-blade-90" xlink:href="#grad-blade" gradientTransform="rotate(90 0.5 0.5)"/>
      <linearGradient id="grad-blade-135" xlink:href="#grad-blade" gradientTransform="rotate(135 0.5 0.5)"/>
      <linearGradient id="grad-blade-180" xlink:href="#grad-blade" gradientTransform="rotate(180 0.5 0.5)"/>
      <linearGradient id="grad-blade-225" xlink:href="#grad-blade" gradientTransform="rotate(225 0.5 0.5)"/>
      <linearGradient id="grad-blade-270" xlink:href="#grad-blade" gradientTransform="rotate(270 0.5 0.5)"/>
      <linearGradient id="grad-blade-315" xlink:href="#grad-blade" gradientTransform="rotate(315 0.5 0.5)"/>
      <linearGradient id="grad-blade-360" xlink:href="#grad-blade" gradientTransform="rotate(360 0.5 0.5)"/>
    </defs>

    <g class="part blade" id="blade-1">
      <path class="line" fill="url(#grad-blade-90)" d="M 2800,11000 L 2800,4700 C 2800,3000 3000,2000 4000,1000 5000,2000 5200,3000 5200,4700 L 5200,11000 2800,11000 Z"/>
      <path class="line" fill="url(#grad-blade-270)" d="M 3100,11000 L 3100,4952 C 3100,3320 3250,2360 4000,1400 4750,2360 4900,3320 4900,4952 L 4900,11000 3100,11000 Z"/>
      <path class="line" fill="none" d="M 4000,11000 L 4000,1000"/>
    </g>

    <g class="part blade active" id="blade-2">
      <path class="line" fill="url(#grad-blade-90)" d="M 5140,8947 C 5109,8978 5082,9022 5064,9075 5046,9129 5036,9190 5036,9251 5036,9313 5046,9372 5064,9426 5082,9480 5109,9523 5140,9554 5168,9581 5200,9597 5233,9600 5233,9600 5233,9600 5233,9601 5200,9604 5168,9620 5140,9647 5109,9678 5082,9722 5064,9775 5046,9829 5036,9890 5036,9951 5036,10013 5046,10072 5064,10126 5082,10180 5109,10223 5140,10254 5169,10282 5200,10298 5234,10301 5200,10303 5169,10319 5140,10347 5109,10378 5082,10422 5064,10475 5046,10529 5036,10590 5036,10651 5036,10713 5046,10772 5064,10826 5082,10880 5109,10923 5140,10954 5167,10980 5197,10996 5228,11000 L 2768,11000 C 2800,10996 2830,10980 2857,10954 2888,10923 2913,10880 2932,10826 2951,10772 2960,10713 2960,10651 2960,10590 2951,10529 2932,10475 2913,10421 2888,10378 2857,10347 2828,10319 2796,10303 2763,10301 2796,10298 2828,10282 2857,10254 2888,10223 2913,10180 2932,10126 2951,10072 2960,10013 2960,9951 2960,9890 2951,9829 2932,9775 2913,9721 2888,9678 2857,9647 2828,9619 2796,9603 2763,9601 2796,9598 2828,9582 2857,9554 2888,9523 2913,9480 2932,9426 2951,9372 2960,9313 2960,9251 2960,9190 2951,9129 2932,9075 2913,9021 2888,8978 2857,8947 2842,8933 2828,8923 2812,8915 2917,7651 3067,6517 2752,5000 2544,4000 2961,2000 4000,1000 5038,2000 5452,4000 5244,5000 4929,6516 5079,7650 5184,8915 5168,8923 5154,8934 5140,8947 Z"/>
      <path class="line" fill="url(#grad-blade-270)" d="M 4876,9029 C 4852,9059 4832,9101 4818,9152 4804,9203 4797,9261 4797,9320 4797,9380 4803,9438 4818,9489 4833,9540 4852,9582 4876,9612 4899,9638 4923,9653 4948,9656 L 4948,9657 C 4923,9660 4899,9675 4876,9701 4852,9731 4832,9773 4818,9824 4804,9875 4797,9933 4797,9992 4797,10052 4803,10110 4818,10161 4833,10212 4852,10254 4876,10284 4899,10310 4923,10326 4948,10328 4923,10331 4899,10347 4876,10373 4852,10403 4832,10445 4818,10496 4804,10547 4797,10605 4797,10664 4797,10724 4803,10782 4818,10833 4833,10884 4852,10926 4876,10956 4898,10981 4921,10996 4945,11000 L 3052,11000 C 3076,10996 3099,10981 3120,10956 3144,10926 3164,10884 3178,10833 3192,10782 3200,10724 3200,10664 3200,10605 3192,10547 3178,10496 3164,10445 3144,10403 3120,10373 3098,10347 3073,10331 3048,10328 3073,10326 3098,10310 3120,10284 3144,10254 3164,10212 3178,10161 3192,10110 3200,10052 3200,9992 3200,9933 3192,9875 3178,9824 3164,9773 3144,9731 3120,9701 3098,9675 3073,9659 3048,9656 3073,9654 3098,9638 3120,9612 3144,9582 3164,9540 3178,9489 3192,9438 3200,9380 3200,9320 3200,9261 3192,9203 3178,9152 3164,9101 3144,9059 3120,9029 3109,9016 3097,9006 3086,8998 3166,7785 3281,6696 3039,5240 2880,4280 3202,2360 4000,1400 4799,2360 5116,4280 4956,5240 4714,6695 4829,7784 4910,8999 4899,9006 4887,9016 4876,9029 Z"/>
      <path class="line" fill="none" d="M 3998,11000 L 3998,1000"/>
    </g>

    <g class="part blade" id="blade-3">
      <path class="line" fill="url(#grad-blade-90)" d="M 2900,11000 C 3300,9933 3446,8831 3400,7800 3354,6769 2985,6239 2900,5100 2815,3961 3800,2100 4500,1000 4400,2300 4200,3000 4700,4300 5200,5600 5277,5996 5400,7100 5523,8204 5267,10200 5100,11000 L 2900,11000 Z"/>
      <path class="line" fill="url(#grad-blade-270)" d="M 3200,11000 C 3600,9933 3746,8831 3700,7800 3654,6769 3200,5800 3200,5100 3200,4400 3400,3400 4100,2300 4000,3600 4200,3900 4400,4400 4600,4900 4977,5996 5100,7100 5223,8204 4967,10200 4800,11000 L 3200,11000 Z"/>
      <path class="line" fill="none" d="M 3900,11000 C 4200,10200 4400,9300 4400,8100 4400,6900 4000,5900 3900,5300 3800,4700 3600,3500 4500,1000"/>
    </g>
  </g>

  <!-- CROSS-GUARD -->
  <g>
    <defs>
      <linearGradient id="grad-crossguard">
        <stop class="steel-light" offset="0"/>
        <stop class="steel-dark" offset="1"/>
      </linearGradient>
      <linearGradient id="grad-crossguard-0" xlink:href="#grad-crossguard" gradientTransform="rotate(0 0.5 0.5)"/>
      <linearGradient id="grad-crossguard-45" xlink:href="#grad-crossguard" gradientTransform="rotate(45 0.5 0.5)"/>
      <linearGradient id="grad-crossguard-90" xlink:href="#grad-crossguard" gradientTransform="rotate(90 0.5 0.5)"/>
      <linearGradient id="grad-crossguard-135" xlink:href="#grad-crossguard" gradientTransform="rotate(135 0.5 0.5)"/>
      <linearGradient id="grad-crossguard-180" xlink:href="#grad-crossguard" gradientTransform="rotate(180 0.5 0.5)"/>
      <linearGradient id="grad-crossguard-225" xlink:href="#grad-crossguard" gradientTransform="rotate(225 0.5 0.5)"/>
      <linearGradient id="grad-crossguard-270" xlink:href="#grad-crossguard" gradientTransform="rotate(270 0.5 0.5)"/>
      <linearGradient id="grad-crossguard-315" xlink:href="#grad-crossguard" gradientTransform="rotate(315 0.5 0.5)"/>
      <linearGradient id="grad-crossguard-360" xlink:href="#grad-crossguard" gradientTransform="rotate(360 0.5 0.5)"/>
    </defs>

    <g class="part crossguard" id="crossguard-1">
      <path class="line" fill="url(#grad-crossguard-90)" d="M 4000,11600 L 2000,11600 2000,11000 6000,11000 6000,11600 4000,11600 Z"/>
      <path class="line" fill="url(#grad-crossguard-270)" d="M 2401,11201 C 2401,11271 2382,11340 2347,11401 2312,11462 2262,11512 2201,11547 2140,11582 2071,11601 2001,11601 1930,11601 1861,11582 1800,11547 1739,11512 1689,11462 1654,11401 1619,11340 1600,11271 1600,11201 1600,11130 1619,11061 1654,11000 1689,10939 1739,10889 1800,10854 1861,10819 1930,10800 2001,10800 2071,10800 2140,10819 2201,10854 2262,10889 2312,10939 2347,11000 2382,11061 2401,11130 2401,11201 Z"/>
      <path class="line" fill="url(#grad-crossguard-270)" d="M 6401,11201 C 6401,11271 6382,11340 6347,11401 6312,11462 6262,11512 6201,11547 6140,11582 6071,11601 6001,11601 5930,11601 5861,11582 5800,11547 5739,11512 5689,11462 5654,11401 5619,11340 5600,11271 5600,11201 5600,11130 5619,11061 5654,11000 5689,10939 5739,10889 5800,10854 5861,10819 5930,10800 6001,10800 6071,10800 6140,10819 6201,10854 6262,10889 6312,10939 6347,11000 6382,11061 6401,11130 6401,11201 Z"/>
      <path class="line" fill="url(#grad-crossguard-90)" d="M 6201,11201 C 6201,11236 6192,11270 6174,11301 6157,11331 6131,11357 6101,11374 6070,11392 6036,11401 6000,11401 5965,11401 5931,11392 5900,11374 5870,11357 5844,11331 5827,11301 5809,11270 5800,11236 5800,11201 5800,11165 5809,11131 5827,11100 5844,11070 5870,11044 5900,11027 5931,11009 5965,11000 6000,11000 6036,11000 6070,11009 6101,11027 6131,11044 6157,11070 6174,11100 6192,11131 6201,11165 6201,11201 Z"/>
      <path class="line" fill="url(#grad-crossguard-90)" d="M 2201,11201 C 2201,11236 2192,11270 2174,11301 2157,11331 2131,11357 2101,11374 2070,11392 2036,11401 2001,11401 1965,11401 1931,11392 1900,11374 1870,11357 1844,11331 1827,11301 1809,11270 1800,11236 1800,11201 1800,11165 1809,11131 1827,11100 1844,11070 1870,11044 1900,11027 1931,11009 1965,11000 2001,11000 2036,11000 2070,11009 2101,11027 2131,11044 2157,11070 2174,11100 2192,11131 2201,11165 2201,11201 Z"/>
    </g>

    <g class="part crossguard active" id="crossguard-2">
      <path class="line" fill="url(#grad-crossguard-90)" d="M 4000,10700 C 4300,10767 4595,10866 4900,10900 5231,10936 5567,10900 5900,10900 L 5900,11500 C 5633,11533 5401,11583 5100,11600 4767,11618 4367,11600 4000,11600 3633,11600 3233,11618 2900,11600 2599,11583 2367,11533 2100,11500 L 2100,10900 C 2433,10900 2769,10936 3100,10900 3405,10866 3700,10767 4000,10700 Z"/>
      <path class="line" fill="url(#grad-crossguard-315)" d="M 2229,11528 C 2171,11568 2104,11593 2034,11599 1982,11603 1929,11598 1879,11582 1659,11655 1401,11700 1180,11773 1324,11590 1455,11363 1599,11180 1602,11129 1614,11078 1636,11031 1666,10967 1712,10912 1770,10872 1827,10831 1894,10807 1964,10801 2034,10795 2105,10807 2169,10837 2232,10867 2287,10913 2327,10970 2368,11028 2392,11095 2398,11165 2404,11235 2392,11305 2362,11369 2333,11433 2287,11488 2229,11528 Z"/>
      <path class="line" fill="url(#grad-crossguard-45)" d="M 1671,11430 C 1631,11372 1606,11305 1600,11235 1596,11182 1602,11130 1617,11080 1544,10859 1499,10601 1426,10381 1609,10525 1836,10656 2019,10800 2070,10802 2121,10815 2169,10837 2232,10867 2287,10913 2327,10970 2368,11028 2392,11095 2398,11165 2404,11235 2392,11305 2362,11369 2333,11433 2287,11488 2229,11528 2171,11568 2104,11593 2034,11599 1964,11605 1894,11593 1830,11563 1766,11533 1712,11487 1671,11430 Z"/>
      <path class="line" fill="url(#grad-crossguard-0)" d="M 1930,11594 C 1861,11582 1796,11551 1742,11506 1702,11472 1669,11431 1645,11385 1437,11280 1223,11130 1015,11025 1246,10998 1500,10930 1730,10903 1769,10868 1814,10841 1863,10823 1929,10799 2000,10793 2069,10805 2138,10817 2203,10847 2257,10893 2311,10938 2352,10996 2376,11062 2400,11129 2406,11200 2394,11269 2382,11338 2352,11403 2306,11457 2261,11511 2203,11552 2137,11576 2071,11600 1999,11606 1930,11594 Z"/>
      <path class="line" fill="url(#grad-crossguard-90)" d="M 2201,11201 C 2201,11236 2192,11270 2174,11301 2157,11331 2131,11357 2101,11374 2070,11392 2036,11401 2001,11401 1965,11401 1931,11392 1900,11374 1870,11357 1844,11331 1827,11301 1809,11270 1800,11236 1800,11201 1800,11165 1809,11131 1827,11100 1844,11070 1870,11044 1900,11027 1931,11009 1965,11000 2001,11000 2036,11000 2070,11009 2101,11027 2131,11044 2157,11070 2174,11100 2192,11131 2201,11165 2201,11201 Z"/>
      <path class="line" fill="url(#grad-crossguard-225)" d="M 5786,11528 C 5844,11568 5911,11593 5981,11599 6033,11603 6086,11598 6136,11582 6356,11655 6614,11700 6835,11773 6691,11590 6560,11363 6416,11180 6413,11129 6401,11078 6379,11031 6349,10967 6303,10912 6245,10872 6188,10831 6121,10807 6051,10801 5981,10795 5910,10807 5846,10837 5783,10867 5728,10913 5688,10970 5647,11028 5623,11095 5617,11165 5611,11235 5623,11305 5653,11369 5682,11433 5728,11488 5786,11528 Z"/>
      <path class="line" fill="url(#grad-crossguard-135)" d="M 6344,11430 C 6384,11372 6409,11305 6415,11235 6419,11182 6413,11130 6398,11080 6471,10859 6516,10601 6589,10381 6406,10525 6179,10656 5996,10800 5945,10802 5894,10815 5846,10837 5783,10867 5728,10913 5688,10970 5647,11028 5623,11095 5617,11165 5611,11235 5623,11305 5653,11369 5682,11433 5728,11488 5786,11528 5844,11568 5911,11593 5981,11599 6051,11605 6121,11593 6185,11563 6249,11533 6303,11487 6344,11430 Z"/>
      <path class="line" fill="url(#grad-crossguard-180)" d="M 6085,11594 C 6154,11582 6219,11551 6273,11506 6313,11472 6346,11431 6370,11385 6578,11280 6792,11130 7000,11025 6769,10998 6515,10930 6285,10903 6246,10868 6201,10841 6152,10823 6086,10799 6015,10793 5946,10805 5877,10817 5812,10847 5758,10893 5704,10938 5663,10996 5639,11062 5615,11129 5609,11200 5621,11269 5633,11338 5663,11403 5709,11457 5754,11511 5812,11552 5878,11576 5944,11600 6016,11606 6085,11594 Z"/>
      <path class="line" fill="url(#grad-crossguard-90)" d="M 6201,11201 C 6201,11236 6192,11270 6174,11301 6157,11331 6131,11357 6101,11374 6070,11392 6036,11401 6000,11401 5965,11401 5931,11392 5900,11374 5870,11357 5844,11331 5827,11301 5809,11270 5800,11236 5800,11201 5800,11165 5809,11131 5827,11100 5844,11070 5870,11044 5900,11027 5931,11009 5965,11000 6000,11000 6036,11000 6070,11009 6101,11027 6131,11044 6157,11070 6174,11100 6192,11131 6201,11165 6201,11201 Z"/>
    </g>
  </g>

  <!-- GRIP -->
  <g>
    <defs>
      <linearGradient id="grad-grip">
        <stop class="wood-light" offset="0"/>
        <stop class="wood-dark" offset="1"/>
      </linearGradient>
      <linearGradient id="grad-grip-0" xlink:href="#grad-grip" gradientTransform="rotate(0 0.5 0.5)"/>
      <linearGradient id="grad-grip-45" xlink:href="#grad-grip" gradientTransform="rotate(45 0.5 0.5)"/>
      <linearGradient id="grad-grip-90" xlink:href="#grad-grip" gradientTransform="rotate(90 0.5 0.5)"/>
      <linearGradient id="grad-grip-135" xlink:href="#grad-grip" gradientTransform="rotate(135 0.5 0.5)"/>
      <linearGradient id="grad-grip-180" xlink:href="#grad-grip" gradientTransform="rotate(180 0.5 0.5)"/>
      <linearGradient id="grad-grip-225" xlink:href="#grad-grip" gradientTransform="rotate(225 0.5 0.5)"/>
      <linearGradient id="grad-grip-270" xlink:href="#grad-grip" gradientTransform="rotate(270 0.5 0.5)"/>
      <linearGradient id="grad-grip-315" xlink:href="#grad-grip" gradientTransform="rotate(315 0.5 0.5)"/>
      <linearGradient id="grad-grip-360" xlink:href="#grad-grip" gradientTransform="rotate(360 0.5 0.5)"/>
    </defs>

    <g class="part grip" id="grip-1">
      <path class="line" fill="url(#grad-grip-0)" d="M 4400,11600 C 4400,11618 4398,11635 4394,11650 4390,11665 4385,11678 4378,11687 4371,11695 4364,11700 4356,11700 4356,11700 4356,11700 4356,11700 L 4356,11700 3644,11700 3644,11700 C 3644,11700 3644,11700 3644,11700 3636,11700 3629,11695 3622,11687 3615,11678 3610,11665 3606,11650 3602,11635 3600,11618 3600,11600 L 4400,11600 Z"/>
      <path class="line" fill="url(#grad-grip-180)" d="M 3644,11900 L 3644,11900 C 3644,11900 3644,11900 3644,11900 3636,11900 3629,11895 3622,11887 3615,11878 3610,11865 3606,11850 3602,11835 3600,11818 3600,11800 3600,11782 3602,11765 3606,11750 3610,11735 3615,11722 3622,11713 3629,11705 3636,11700 3644,11700 3644,11700 3644,11700 3644,11700 L 3644,11700 4356,11700 4356,11700 C 4356,11700 4356,11700 4356,11700 4364,11700 4371,11705 4378,11713 4385,11722 4390,11735 4394,11750 4398,11765 4400,11782 4400,11800 4400,11818 4398,11835 4394,11850 4390,11865 4385,11878 4378,11887 4371,11895 4364,11900 4356,11900 4356,11900 4356,11900 4356,11900 L 4356,11900 3644,11900 Z"/>
      <path class="line" fill="url(#grad-grip-0)" d="M 3644,12100 L 3644,12100 C 3644,12100 3644,12100 3644,12100 3636,12100 3629,12095 3622,12087 3615,12078 3610,12065 3606,12050 3602,12035 3600,12018 3600,12000 3600,11982 3602,11965 3606,11950 3610,11935 3615,11922 3622,11913 3629,11905 3636,11900 3644,11900 3644,11900 3644,11900 3644,11900 L 3644,11900 4356,11900 4356,11900 C 4356,11900 4356,11900 4356,11900 4364,11900 4371,11905 4378,11913 4385,11922 4390,11935 4394,11950 4398,11965 4400,11982 4400,12000 4400,12018 4398,12035 4394,12050 4390,12065 4385,12078 4378,12087 4371,12095 4364,12100 4356,12100 4356,12100 4356,12100 4356,12100 L 4356,12100 3644,12100 Z"/>
      <path class="line" fill="url(#grad-grip-180)" d="M 3644,12300 L 3644,12300 C 3644,12300 3644,12300 3644,12300 3636,12300 3629,12295 3622,12287 3615,12278 3610,12265 3606,12250 3602,12235 3600,12218 3600,12200 3600,12182 3602,12165 3606,12150 3610,12135 3615,12122 3622,12113 3629,12105 3636,12100 3644,12100 3644,12100 3644,12100 3644,12100 L 3644,12100 4356,12100 4356,12100 C 4356,12100 4356,12100 4356,12100 4364,12100 4371,12105 4378,12113 4385,12122 4390,12135 4394,12150 4398,12165 4400,12182 4400,12200 4400,12218 4398,12235 4394,12250 4390,12265 4385,12278 4378,12287 4371,12295 4364,12300 4356,12300 4356,12300 4356,12300 4356,12300 L 4356,12300 3644,12300 Z"/>
      <path class="line" fill="url(#grad-grip-0)" d="M 3644,12500 L 3644,12500 C 3644,12500 3644,12500 3644,12500 3636,12500 3629,12495 3622,12487 3615,12478 3610,12465 3606,12450 3602,12435 3600,12418 3600,12400 3600,12382 3602,12365 3606,12350 3610,12335 3615,12322 3622,12313 3629,12305 3636,12300 3644,12300 3644,12300 3644,12300 3644,12300 L 3644,12300 4356,12300 4356,12300 C 4356,12300 4356,12300 4356,12300 4364,12300 4371,12305 4378,12313 4385,12322 4390,12335 4394,12350 4398,12365 4400,12382 4400,12400 4400,12418 4398,12435 4394,12450 4390,12465 4385,12478 4378,12487 4371,12495 4364,12500 4356,12500 4356,12500 4356,12500 4356,12500 L 4356,12500 3644,12500 Z"/>
      <path class="line" fill="url(#grad-grip-180)" d="M 3644,12700 L 3644,12700 C 3644,12700 3644,12700 3644,12700 3636,12700 3629,12695 3622,12687 3615,12678 3610,12665 3606,12650 3602,12635 3600,12618 3600,12600 3600,12582 3602,12565 3606,12550 3610,12535 3615,12522 3622,12513 3629,12505 3636,12500 3644,12500 3644,12500 3644,12500 3644,12500 L 3644,12500 4356,12500 4356,12500 C 4356,12500 4356,12500 4356,12500 4364,12500 4371,12505 4378,12513 4385,12522 4390,12535 4394,12550 4398,12565 4400,12582 4400,12600 4400,12618 4398,12635 4394,12650 4390,12665 4385,12678 4378,12687 4371,12695 4364,12700 4356,12700 4356,12700 4356,12700 4356,12700 L 4356,12700 3644,12700 Z"/>
      <path class="line" fill="url(#grad-grip-0)" d="M 3644,12900 L 3644,12900 C 3644,12900 3644,12900 3644,12900 3636,12900 3629,12895 3622,12887 3615,12878 3610,12865 3606,12850 3602,12835 3600,12818 3600,12800 3600,12782 3602,12765 3606,12750 3610,12735 3615,12722 3622,12713 3629,12705 3636,12700 3644,12700 3644,12700 3644,12700 3644,12700 L 3644,12700 4356,12700 4356,12700 C 4356,12700 4356,12700 4356,12700 4364,12700 4371,12705 4378,12713 4385,12722 4390,12735 4394,12750 4398,12765 4400,12782 4400,12800 4400,12818 4398,12835 4394,12850 4390,12865 4385,12878 4378,12887 4371,12895 4364,12900 4356,12900 4356,12900 4356,12900 4356,12900 L 4356,12900 3644,12900 Z"/>
      <path class="line" fill="url(#grad-grip-180)" d="M 3644,13100 L 3644,13100 C 3644,13100 3644,13100 3644,13100 3636,13100 3629,13095 3622,13087 3615,13078 3610,13065 3606,13050 3602,13035 3600,13018 3600,13000 3600,12982 3602,12965 3606,12950 3610,12935 3615,12922 3622,12913 3629,12905 3636,12900 3644,12900 3644,12900 3644,12900 3644,12900 L 3644,12900 4356,12900 4356,12900 C 4356,12900 4356,12900 4356,12900 4364,12900 4371,12905 4378,12913 4385,12922 4390,12935 4394,12950 4398,12965 4400,12982 4400,13000 4400,13018 4398,13035 4394,13050 4390,13065 4385,13078 4378,13087 4371,13095 4364,13100 4356,13100 4356,13100 4356,13100 4356,13100 L 4356,13100 3644,13100 Z"/>
      <path class="line" fill="url(#grad-grip-0)" d="M 3644,13300 L 3644,13300 C 3644,13300 3644,13300 3644,13300 3636,13300 3629,13295 3622,13287 3615,13278 3610,13265 3606,13250 3602,13235 3600,13218 3600,13200 3600,13182 3602,13165 3606,13150 3610,13135 3615,13122 3622,13113 3629,13105 3636,13100 3644,13100 3644,13100 3644,13100 3644,13100 L 3644,13100 4356,13100 4356,13100 C 4356,13100 4356,13100 4356,13100 4364,13100 4371,13105 4378,13113 4385,13122 4390,13135 4394,13150 4398,13165 4400,13182 4400,13200 4400,13218 4398,13235 4394,13250 4390,13265 4385,13278 4378,13287 4371,13295 4364,13300 4356,13300 4356,13300 4356,13300 4356,13300 L 4356,13300 3644,13300 Z"/>
      <path class="line" fill="url(#grad-grip-180)" d="M 3644,13500 L 3644,13500 C 3644,13500 3644,13500 3644,13500 3636,13500 3629,13495 3622,13487 3615,13478 3610,13465 3606,13450 3602,13435 3600,13418 3600,13400 3600,13382 3602,13365 3606,13350 3610,13335 3615,13322 3622,13313 3629,13305 3636,13300 3644,13300 3644,13300 3644,13300 3644,13300 L 3644,13300 4356,13300 4356,13300 C 4356,13300 4356,13300 4356,13300 4364,13300 4371,13305 4378,13313 4385,13322 4390,13335 4394,13350 4398,13365 4400,13382 4400,13400 4400,13418 4398,13435 4394,13450 4390,13465 4385,13478 4378,13487 4371,13495 4364,13500 4356,13500 4356,13500 4356,13500 4356,13500 L 4356,13500 3644,13500 Z"/>
      <path class="line" fill="url(#grad-grip-0)" d="M 3644,13700 L 3644,13700 C 3644,13700 3644,13700 3644,13700 3636,13700 3629,13695 3622,13687 3615,13678 3610,13665 3606,13650 3602,13635 3600,13618 3600,13600 3600,13582 3602,13565 3606,13550 3610,13535 3615,13522 3622,13513 3629,13505 3636,13500 3644,13500 3644,13500 3644,13500 3644,13500 L 3644,13500 4356,13500 4356,13500 C 4356,13500 4356,13500 4356,13500 4364,13500 4371,13505 4378,13513 4385,13522 4390,13535 4394,13550 4398,13565 4400,13582 4400,13600 4400,13618 4398,13635 4394,13650 4390,13665 4385,13678 4378,13687 4371,13695 4364,13700 4356,13700 4356,13700 4356,13700 4356,13700 L 4356,13700 3644,13700 Z"/>
      <path class="line" fill="url(#grad-grip-180)" d="M 3644,13900 L 3644,13900 C 3644,13900 3644,13900 3644,13900 3636,13900 3629,13895 3622,13887 3615,13878 3610,13865 3606,13850 3602,13835 3600,13818 3600,13800 3600,13782 3602,13765 3606,13750 3610,13735 3615,13722 3622,13713 3629,13705 3636,13700 3644,13700 3644,13700 3644,13700 3644,13700 L 3644,13700 4356,13700 4356,13700 C 4356,13700 4356,13700 4356,13700 4364,13700 4371,13705 4378,13713 4385,13722 4390,13735 4394,13750 4398,13765 4400,13782 4400,13800 4400,13818 4398,13835 4394,13850 4390,13865 4385,13878 4378,13887 4371,13895 4364,13900 4356,13900 4356,13900 4356,13900 4356,13900 L 4356,13900 3644,13900 Z"/>
      <path class="line" fill="url(#grad-grip-0)" d="M 4400,14000 C 4400,13982 4398,13965 4394,13950 4390,13935 4385,13922 4378,13913 4371,13905 4364,13900 4356,13900 4356,13900 4356,13900 4356,13900 L 4356,13900 3644,13900 3644,13900 C 3644,13900 3644,13900 3644,13900 3636,13900 3629,13905 3622,13913 3615,13922 3610,13935 3606,13950 3602,13965 3600,13982 3600,14000 L 4400,14000 Z"/>
    </g>

    <g class="part grip active" id="grip-2">
      <path class="line" fill="url(#grad-grip-45)" d="M 4486,11600 C 4487,11600 4487,11600 4487,11600 4495,11631 4500,11665 4500,11701 4500,11736 4495,11770 4487,11801 4478,11831 4465,11857 4450,11874 4435,11892 4418,11901 4400,11901 L 4400,11900 4000,11600 4486,11600 Z"/>
      <path class="line" fill="url(#grad-grip-225)" d="M 4400,12300 L 4400,11900 4000,11600 3600,11600 3600,11700 4400,12300 Z"/>
      <path class="line" fill="url(#grad-grip-45)" d="M 3600,11700 L 4400,12300 4400,12300 C 4418,12300 4435,12309 4450,12327 4465,12344 4478,12370 4487,12400 4495,12431 4500,12465 4500,12501 4500,12536 4495,12570 4487,12601 4478,12631 4465,12657 4450,12674 4435,12692 4418,12701 4400,12701 L 4400,12700 3600,12100 3600,12101 C 3582,12101 3565,12092 3550,12074 3535,12057 3522,12031 3513,12001 3505,11970 3500,11936 3500,11901 3500,11865 3505,11831 3513,11800 3522,11770 3535,11744 3550,11727 3565,11709 3582,11700 3600,11700 L 3600,11700 Z"/>
      <path class="line" fill="url(#grad-grip-225)" d="M 3600,12100 L 3600,12500 4400,13100 4400,12700 3600,12100 Z"/>
      <path class="line" fill="url(#grad-grip-45)" d="M 3600,12499 L 4400,13099 4400,13099 C 4418,13099 4435,13108 4450,13126 4465,13143 4478,13169 4487,13199 4495,13230 4500,13264 4500,13300 4500,13335 4495,13369 4487,13400 4478,13430 4465,13456 4450,13473 4435,13491 4418,13500 4400,13500 L 4400,13499 3600,12899 3600,12900 C 3582,12900 3565,12891 3550,12873 3535,12856 3522,12830 3513,12800 3505,12769 3500,12735 3500,12700 3500,12664 3505,12630 3513,12599 3522,12569 3535,12543 3550,12526 3565,12508 3582,12499 3600,12499 L 3600,12499 Z"/>
      <path class="line" fill="url(#grad-grip-225)" d="M 3600,12900 L 3600,13300 4400,13900 4400,13500 3600,12900 Z"/>
      <path class="line" fill="url(#grad-grip-45)" d="M 4000,14000 L 3600,13700 3600,13701 C 3582,13701 3565,13692 3550,13674 3535,13657 3522,13631 3513,13601 3505,13570 3500,13536 3500,13501 3500,13465 3505,13431 3513,13400 3522,13370 3535,13344 3550,13327 3565,13309 3582,13300 3600,13300 L 3600,13300 4400,13900 4400,13900 C 4418,13900 4435,13909 4450,13927 4465,13944 4478,13970 4486,14000 L 4000,14000 Z"/>
      <path class="line" fill="url(#grad-grip-225)" d="M 3600,13700 L 4000,14000 3600,14000 3600,13700 Z"/>
    </g>
  </g>

  <!-- POMMEL -->
  <g>
    <defs>
      <linearGradient id="grad-pommel">
        <stop class="obsidian-light" offset="0"/>
        <stop class="obsidian-dark" offset="1"/>
      </linearGradient>
      <linearGradient id="grad-pommel-0" xlink:href="#grad-pommel" gradientTransform="rotate(0 0.5 0.5)"/>
      <linearGradient id="grad-pommel-45" xlink:href="#grad-pommel" gradientTransform="rotate(45 0.5 0.5)"/>
      <linearGradient id="grad-pommel-90" xlink:href="#grad-pommel" gradientTransform="rotate(90 0.5 0.5)"/>
      <linearGradient id="grad-pommel-135" xlink:href="#grad-pommel" gradientTransform="rotate(135 0.5 0.5)"/>
      <linearGradient id="grad-pommel-180" xlink:href="#grad-pommel" gradientTransform="rotate(180 0.5 0.5)"/>
      <linearGradient id="grad-pommel-225" xlink:href="#grad-pommel" gradientTransform="rotate(225 0.5 0.5)"/>
      <linearGradient id="grad-pommel-270" xlink:href="#grad-pommel" gradientTransform="rotate(270 0.5 0.5)"/>
      <linearGradient id="grad-pommel-315" xlink:href="#grad-pommel" gradientTransform="rotate(315 0.5 0.5)"/>
      <linearGradient id="grad-pommel-360" xlink:href="#grad-pommel" gradientTransform="rotate(360 0.5 0.5)"/>
    </defs>

    <g class="part pommel" id="pommel-1">
      <path class="line" fill="url(#grad-pommel-90)" d="M 4632,13999 C 4677,14093 4700,14195 4700,14300 4700,14422 4668,14543 4606,14650 4545,14756 4456,14845 4350,14906 4243,14968 4122,15000 4000,15000 3877,15000 3756,14968 3649,14906 3543,14845 3454,14756 3393,14650 3331,14543 3299,14422 3299,14300 3299,14195 3322,14093 3367,13999 L 4632,13999 Z"/>
      <path class="line" fill="url(#grad-pommel-270)" d="M 4491,14200 C 4498,14233 4501,14267 4501,14301 4501,14388 4478,14475 4434,14551 4390,14627 4327,14690 4251,14734 4175,14778 4088,14801 4001,14801 3913,14801 3826,14778 3750,14734 3674,14690 3611,14627 3567,14551 3523,14475 3500,14388 3500,14301 3500,14267 3503,14233 3510,14200 L 4491,14200 Z"/>
    </g>

    <g class="part pommel active" id="pommel-2">
      <path class="line" fill="url(#grad-pommel-0)" d="M 2800,14300 L 3401,14501 3401,14100 2800,14300 Z"/>
      <path class="line" fill="url(#grad-pommel-180)" d="M 5200,14300 L 4599,14501 4599,14100 5200,14300 Z"/>
      <path class="line" fill="url(#grad-pommel-315)" d="M 3141,15165 L 3708,14882 3424,14599 3141,15165 Z"/>
      <path class="line" fill="url(#grad-pommel-225)" d="M 4864,15165 L 4297,14882 4581,14599 4864,15165 Z"/>
      <path class="line" fill="url(#grad-pommel-270)" d="M 4000,15500 L 4201,14899 3800,14899 4000,15500 Z"/>
      <path class="line" fill="url(#grad-pommel-90)" d="M 4633,14000 C 4678,14094 4701,14196 4701,14300 4701,14423 4669,14544 4607,14651 4546,14757 4457,14846 4351,14907 4244,14969 4123,15001 4001,15001 3878,15001 3757,14969 3650,14907 3544,14846 3455,14757 3394,14651 3332,14544 3300,14423 3300,14300 3300,14196 3323,14094 3368,14000 L 4633,14000 Z"/>
      <path class="line" fill="url(#grad-pommel-270)" d="M 4492,14201 C 4499,14234 4502,14268 4502,14302 4502,14389 4479,14476 4435,14552 4391,14628 4328,14691 4252,14735 4176,14779 4089,14802 4002,14802 3914,14802 3827,14779 3751,14735 3675,14691 3612,14628 3568,14552 3524,14476 3501,14389 3501,14302 3501,14268 3504,14234 3511,14201 L 4492,14201 Z"/>
    </g>

    <g class="part pommel" id="pommel-3">
      <path class="line" fill="url(#grad-pommel-90)" d="M 4000,14900 L 3400,14900 3400,14000 4600,14000 4600,14900 4000,14900 Z"/>
      <path class="line" fill="url(#grad-pommel-270)" d="M 4000,14700 L 3600,14700 3600,14200 4400,14200 4400,14700 4000,14700 Z"/>
      <path class="line" fill="url(#grad-pommel-0)" d="M 3100,14150 L 3401,14301 3401,14000 3100,14150 Z"/>
      <path class="line" fill="url(#grad-pommel-0)" d="M 3100,14450 L 3401,14601 3401,14300 3100,14450 Z"/>
      <path class="line" fill="url(#grad-pommel-0)" d="M 3100,14750 L 3401,14901 3401,14600 3100,14750 Z"/>
      <path class="line" fill="url(#grad-pommel-180)" d="M 4900,14150 L 4599,14301 4599,14000 4900,14150 Z"/>
      <path class="line" fill="url(#grad-pommel-180)" d="M 4900,14450 L 4599,14601 4599,14300 4900,14450 Z"/>
      <path class="line" fill="url(#grad-pommel-180)" d="M 4900,14750 L 4599,14901 4599,14600 4900,14750 Z"/>
      <path class="line" fill="url(#grad-pommel-270)" d="M 3550,15200 L 3701,14899 3400,14899 3550,15200 Z"/>
      <path class="line" fill="url(#grad-pommel-270)" d="M 3850,15200 L 4001,14899 3700,14899 3850,15200 Z"/>
      <path class="line" fill="url(#grad-pommel-270)" d="M 4150,15200 L 4301,14899 4000,14899 4150,15200 Z"/>
      <path class="line" fill="url(#grad-pommel-270)" d="M 4450,15200 L 4601,14899 4300,14899 4450,15200 Z"/>
    </g>
  </g>
</svg>